<svg width="20" height="22" viewBox="0 0 20 22" fill="none" xmlns="http://www.w3.org/2000/svg">
<g id="&#240;&#159;&#166;&#134; icon &#34;message question&#34;">
<path id="Vector" d="M14.9551 0H4.98504C1.99402 0 0 2.21607 0 5.54017V12.1884C0 15.5125 1.99402 17.7285 4.98504 17.7285V20.0887C4.98504 20.9751 5.87238 21.5069 6.53041 21.0083L10.9671 17.7285H14.9551C17.9462 17.7285 19.9402 15.5125 19.9402 12.1884V5.54017C19.9402 2.21607 17.9462 0 14.9551 0ZM9.97009 13.4848C9.55135 13.4848 9.22233 13.108 9.22233 12.6538C9.22233 12.1995 9.55135 11.8227 9.97009 11.8227C10.3888 11.8227 10.7178 12.1995 10.7178 12.6538C10.7178 13.108 10.3888 13.4848 9.97009 13.4848ZM11.2263 8.88644C10.8375 9.17453 10.7178 9.36289 10.7178 9.67314V9.90583C10.7178 10.3601 10.3789 10.7369 9.97009 10.7369C9.56132 10.7369 9.22233 10.3601 9.22233 9.90583V9.67314C9.22233 8.38781 10.0698 7.75623 10.3888 7.51247C10.7577 7.23546 10.8774 7.04709 10.8774 6.759C10.8774 6.20499 10.4686 5.75069 9.97009 5.75069C9.47159 5.75069 9.06281 6.20499 9.06281 6.759C9.06281 7.2133 8.72383 7.59003 8.31505 7.59003C7.90628 7.59003 7.5673 7.2133 7.5673 6.759C7.5673 5.28532 8.64407 4.08864 9.97009 4.08864C11.2961 4.08864 12.3729 5.28532 12.3729 6.759C12.3729 8.02216 11.5354 8.65375 11.2263 8.88644Z" fill="#292D32"/>
</g>
</svg>
